<?xml version="1.0" encoding="UTF-8"?>
<svg id="Capa_1" data-name="Capa 1" xmlns="http://www.w3.org/2000/svg" viewBox="0 0 287 150">
  <defs>
    <style>
      .cls-1 {
        fill: #fff;
      }
    </style>
  </defs>
  <g id="Ilustración_1" data-name="Ilustración 1">
    <g>
      <polygon class="cls-1" points="250.54 53.74 248.1 62.26 260.31 62.26 250.58 96.27 261.03 96.27 270.76 62.26 282.36 62.26 284.8 53.74 250.54 53.74"/>
      <polygon class="cls-1" points="60.47 53.73 48.31 96.27 59.15 96.27 71.32 53.73 60.47 53.73"/>
      <g>
        <path class="cls-1" d="M38.83,53.73l-21.23,37.12c-.4.7-1.1,1.11-1.89,1.11-.57,0-1.1-.21-1.52-.58-.45-.41-.7-.99-.7-1.62v-36.03H2.2v27.38c0,8.52,6.93,15.45,15.45,15.45,5.53,0,10.67-2.98,13.41-7.78l20.04-35.05h-12.27Z"/>
        <path class="cls-1" d="M116.77,53.73l-21.23,37.12c-.4.7-1.1,1.11-1.89,1.11-.57,0-1.1-.21-1.52-.58-.45-.41-.7-.99-.7-1.62v-36.03h-11.29v27.38c0,8.52,6.93,15.45,15.45,15.45,5.53,0,10.67-2.98,13.41-7.78l20.04-35.05h-12.27Z"/>
        <path class="cls-1" d="M156.35,70.67v25.6h11.3v-27.38c0-8.52-6.93-15.45-15.45-15.45-5.53,0-10.67,2.98-13.41,7.78l-20.04,35.05h12.28l21.23-37.12c.4-.7,1.11-1.11,1.89-1.11,1.24,0,2.22.97,2.22,2.2v10.42Z"/>
        <path class="cls-1" d="M220.02,90.93c-.21.72-.85,1.2-1.59,1.2-.83,0-1.53-.6-1.65-1.42l-3.66-24.69c-1.06-7.11-7.27-12.47-14.46-12.47-6.49,0-12.27,4.36-14.05,10.6l-9.21,32.23h11.44l10.63-37.19c.22-.75.89-1.26,1.67-1.26.87,0,1.6.62,1.73,1.49l3.67,24.74c1.05,7.07,7.23,12.39,14.37,12.39,6.45,0,12.19-4.33,13.97-10.53l9.23-32.28h-11.44l-10.63,37.19Z"/>
      </g>
    </g>
  </g>
</svg>